{"title":"The Blacklist S01E18 HDTV x264 AAC E-Subs [GWC].mp4","uid":9865848,"size":129879232,"categoryP":"video","categoryS":"tv_shows","magnet":"?xt=urn:btih:6a4060953595d67eefa0e9665eb05588d63ef43e&amp;dn=The+Blacklist+S01E18+HDTV+x264+AAC+E-Subs+%5BGWC%5D.mp4&amp;tr=udp%3A%2F%2Ftracker.openbittorrent.com%3A80&amp;tr=udp%3A%2F%2Fopen.demonii.com%3A1337&amp;tr=udp%3A%2F%2Ftracker.coppersurfer.tk%3A6969&amp;tr=udp%3A%2F%2Fexodus.desync.com%3A6969","seeders":3,"leechers":0,"uploader":"canc232","files":1,"time":1396353459,"description":"The Blacklist S01E18 HDTV x264 AAC E-Subs [GWC] \n\n\nSTORYLINE :\nFormer government agent Raymond &quot;Red&quot; Reddington has eluded capture for decades. But he suddenly surrenders to the FBI with an offer to help catch a terrorist under the condition that he speaks only to Elizabeth &quot;Liz&quot; Keen, a young FBI profiler who's just barely out of Quantico\n\n\nSCREENS : &lt;a href=&quot;\nhttp://i.imgur.com/r90tRON.jpg&quot; rel=&quot;nofollow&quot; target=&quot;_NEW&quot;&gt;\nhttp://i.imgur.com/r90tRON.jpg&lt;/a&gt; &lt;a href=&quot;\nhttp://i.imgur.com/M9tfJ3g.jpg&quot; rel=&quot;nofollow&quot; target=&quot;_NEW&quot;&gt;\nhttp://i.imgur.com/M9tfJ3g.jpg&lt;/a&gt; &lt;a href=&quot;\nhttp://i.imgur.com/47NgY2D.jpg&quot; rel=&quot;nofollow&quot; target=&quot;_NEW&quot;&gt;\nhttp://i.imgur.com/47NgY2D.jpg&lt;/a&gt;\n\n\nMEDIA INFO :\nGeneral \nFormat : MPEG-4 \nFormat profile : Base Media \nFile size : 124 MiB \nDuration : 41mn 43s \nOverall bit rate mode : Variable \nOverall bit rate : 415 Kbps \n\nVideo \nFormat : AVC \nFormat profile : &lt;a class=&quot;__cf_email__&quot; href=&quot;/cdn-cgi/l/email-protection&quot; data-cfemail=&quot;d098b9b7b8909ce3fee0&quot;&gt;[email&amp;#160;protected]&lt;/a&gt;&lt;script cf-hash='f9e31' type=&quot;text/javascript&quot;&gt;\n/* &lt;![CDATA[ */!function(){try{var t=&quot;currentScript&quot;in document?document.currentScript:function(){for(var t=document.getElementsByTagName(&quot;script&quot;),e=t.length;e--;)if(t[e].getAttribute(&quot;cf-hash&quot;))return t[e]}();if(t&amp;&amp;t.previousSibling){var e,r,n,i,c=t.previousSibling,a=c.getAttribute(&quot;data-cfemail&quot;);if(a){for(e=&quot;&quot;,r=parseInt(a.substr(0,2),16),n=2;a.length-n;n+=2)i=parseInt(a.substr(n,2),16)^r,e+=String.fromCharCode(i);e=document.createTextNode(e),c.parentNode.replaceChild(e,c)}}}catch(u){}}();/* ]]&gt; */&lt;/script&gt; \nFormat settings, CABAC : Yes \nFormat settings, ReFrames : 4 frames \nDuration : 41mn 36s \nBit rate : 353 Kbps \nMaximum bit rate : 1 599 Kbps \nWidth : 720 pixels \nHeight : 404 pixels \nDisplay aspect ratio : 16:9 \nFrame rate mode : Constant \nFrame rate : 23.976 fps \nStream size : 105 MiB (85%) \nTitle : The Blacklist S01E18 HDTV x264 AAC E-Subs [GWC] \nWriting library : x264 core \n\nAudio \nFormat : AAC \nFormat profile : HE-AAC / LC \nDuration : 41mn 36s \nBit rate mode : Variable \nChannel(s) : 2 channels \nSampling rate : 48.0 KHz / 24.0 KHz \nStream size : 17.9 MiB (14%) \nLanguage : English \n\nText \nFormat : Timed Text \nTitle : English Subtitle by n17t01 \nLanguage : English ","torrent":{"xt":"urn:btih:6a4060953595d67eefa0e9665eb05588d63ef43e","amp;dn":"The+Blacklist+S01E18+HDTV+x264+AAC+E-Subs+%5BGWC%5D.mp4","amp;tr":["udp%3A%2F%2Ftracker.openbittorrent.com%3A80","udp%3A%2F%2Fopen.demonii.com%3A1337","udp%3A%2F%2Ftracker.coppersurfer.tk%3A6969","udp%3A%2F%2Fexodus.desync.com%3A6969"],"infoHash":"6a4060953595d67eefa0e9665eb05588d63ef43e","infoHashBuffer":{"type":"Buffer","data":[106,64,96,149,53,149,214,126,239,160,233,102,94,176,85,136,214,62,244,62]},"announce":[],"urlList":[]}}